<?xml version="1.0" standalone="no"?>
<!DOCTYPE svg PUBLIC "-//W3C//DTD SVG 20010904//EN"
 "http://www.w3.org/TR/2001/REC-SVG-20010904/DTD/svg10.dtd">
<svg version="1.0" xmlns="http://www.w3.org/2000/svg"
 width="1296.000000pt" height="1296.000000pt" viewBox="0 0 1296.000000 1296.000000"
 preserveAspectRatio="xMidYMid meet">
<metadata>
Created by potrace 1.14, written by Peter Selinger 2001-2017
</metadata>
<g transform="translate(0.000000,1296.000000) scale(0.100000,-0.100000)"
fill="#000000" stroke="none">
<path d="M6120 12159 c-1312 -82 -2563 -626 -3512 -1528 -90 -86 -114 -115
-145 -179 -36 -72 -38 -81 -38 -171 0 -80 4 -106 25 -156 l26 -61 -106 -62
c-129 -76 -211 -139 -250 -193 -16 -23 -45 -91 -65 -152 -20 -63 -65 -167
-103 -237 -137 -258 -127 -228 -127 -365 l0 -121 -74 -69 c-89 -85 -147 -164
-201 -276 -64 -134 -82 -219 -86 -398 l-3 -155 -94 -120 c-364 -468 -658 -913
-764 -1155 -13 -31 -48 -103 -76 -160 l-52 -104 0 -101 c0 -89 3 -108 27 -159
38 -80 114 -156 248 -248 245 -167 400 -334 497 -535 44 -92 57 -99 192 -109
87 -7 97 -10 140 -43 90 -69 242 -116 353 -110 45 3 53 6 56 24 2 15 -6 27
-27 40 -16 11 -44 37 -61 59 -34 42 -100 170 -100 193 0 20 216 118 388 175
l153 51 43 -23 c23 -13 56 -35 73 -50 l31 -26 -24 -93 c-35 -139 -48 -291 -34
-420 l11 -107 -68 -70 c-38 -38 -82 -96 -98 -127 -17 -32 -35 -60 -42 -62 -14
-6 -55 94 -93 226 -22 79 -30 94 -48 96 -19 3 -27 -7 -53 -63 -40 -89 -69
-215 -69 -302 l0 -73 -38 0 c-41 0 -77 -25 -92 -65 -19 -49 -32 -234 -27 -370
6 -155 26 -239 74 -311 48 -72 514 -539 561 -563 25 -13 41 -27 38 -34 -55
-124 -58 -140 -54 -231 7 -159 54 -226 320 -462 817 -721 1806 -1186 2868
-1348 91 -14 180 -26 199 -28 31 -3 37 -9 68 -68 70 -131 166 -225 298 -291
187 -93 393 -92 585 2 110 55 228 169 283 276 41 79 39 77 142 88 113 12 360
56 520 91 863 192 1685 598 2370 1171 129 107 301 265 339 310 42 50 94 157
104 212 13 70 -1 171 -31 233 l-23 46 49 23 c80 38 118 85 182 226 116 256
172 358 242 435 91 100 117 160 111 249 -4 50 -14 87 -40 141 -34 71 -34 75
-20 113 8 22 16 83 19 136 6 113 -13 217 -58 317 -24 53 -32 63 -51 60 -18 -3
-26 -18 -49 -98 -34 -116 -90 -252 -106 -257 -18 -6 -152 132 -201 208 -91
141 -151 350 -155 541 -2 120 -4 117 127 149 176 42 466 27 534 -29 l33 -27
-48 -82 c-55 -92 -80 -124 -140 -172 -46 -36 -52 -51 -29 -70 33 -27 281 26
411 88 68 33 92 39 165 43 63 3 97 11 130 28 25 12 108 84 185 160 77 75 232
213 345 307 247 206 300 260 337 338 25 53 28 71 27 150 -1 75 -6 104 -33 175
-80 215 -544 996 -769 1294 -62 83 -81 146 -93 311 -15 204 -12 195 -92 302
-113 152 -258 358 -330 469 l-65 100 10 90 c26 239 -55 481 -220 656 -78 83
-139 127 -324 237 -76 45 -138 86 -138 90 0 5 7 14 15 21 27 22 65 98 81 162
24 93 14 183 -31 275 -31 63 -53 89 -168 195 -982 911 -2178 1425 -3507 1508
-186 11 -502 11 -690 -1z m751 -229 c927 -71 1807 -371 2569 -875 257 -170
441 -314 688 -538 141 -127 172 -170 172 -236 0 -63 -16 -91 -98 -174 l-77
-77 2 -53 c10 -257 8 -300 -21 -382 -59 -170 -172 -303 -319 -375 -139 -68
-239 -84 -424 -66 l-92 8 -84 -80 c-141 -135 -193 -135 -346 7 -282 259 -501
415 -806 572 -503 259 -995 379 -1560 379 -565 0 -1047 -117 -1560 -378 -279
-142 -522 -313 -782 -550 -138 -125 -171 -142 -242 -122 -33 9 -65 31 -128 92
l-84 80 -92 -8 c-185 -18 -285 -2 -426 67 -98 48 -204 147 -259 241 -77 130
-106 291 -82 446 6 44 9 90 5 103 -4 13 -41 58 -81 99 -78 81 -94 109 -94 172
0 67 26 103 174 238 923 843 2039 1321 3296 1413 112 8 629 6 751 -3z m-4225
-2054 l-10 -85 -85 -39 c-47 -21 -115 -50 -150 -63 l-63 -24 -84 -167 c-46
-92 -84 -170 -84 -173 0 -3 7 -5 16 -5 99 0 204 -102 244 -237 7 -24 15 -43
16 -43 2 0 38 36 81 81 80 83 174 160 231 187 28 14 35 14 42 2 6 -10 -12 -33
-64 -84 -65 -64 -146 -189 -146 -225 0 -6 17 -19 39 -30 l38 -20 95 62 c52 34
121 75 154 90 l60 29 47 -30 47 -30 -52 -30 c-69 -39 -170 -115 -185 -140 -10
-17 -7 -24 17 -47 28 -26 28 -27 74 -11 59 20 109 20 151 0 43 -20 62 -49 81
-126 41 -157 -53 -275 -247 -311 -38 -7 -59 -15 -59 -24 0 -24 29 -85 65 -134
l34 -48 -22 -16 c-39 -28 -146 -55 -216 -55 -95 0 -162 21 -310 94 -172 87
-244 109 -351 110 -107 1 -265 -30 -290 -56 -34 -36 -53 -123 -47 -210 l5 -80
-34 -30 c-44 -39 -75 -91 -115 -196 -25 -66 -43 -95 -86 -139 l-54 -56 80 6
c150 12 301 79 434 192 l65 56 47 -26 c111 -59 249 -18 378 113 l68 68 68 -34
c123 -61 287 -56 441 14 51 23 67 28 50 14 -90 -73 -236 -129 -357 -137 -46
-3 -83 -9 -83 -13 0 -4 8 -14 17 -21 49 -41 188 -239 167 -239 -4 0 -21 9 -38
19 -48 30 -203 79 -275 87 l-64 7 7 -38 c11 -59 42 -135 81 -199 19 -32 35
-60 35 -62 0 -2 -17 4 -37 13 -75 32 -140 43 -248 43 -60 0 -116 -4 -122 -8
-9 -6 4 -28 46 -78 146 -170 368 -308 530 -330 l53 -7 -74 -39 c-41 -21 -90
-51 -109 -67 l-34 -29 50 -24 c43 -20 66 -23 167 -23 64 0 115 -1 113 -3 -2
-2 -67 -36 -145 -76 -99 -51 -137 -75 -125 -80 40 -15 223 -5 335 19 63 13
125 27 138 31 21 6 22 4 22 -47 0 -62 -21 -167 -44 -221 l-16 -38 -63 46 c-95
71 -273 152 -255 117 37 -72 70 -152 84 -204 22 -82 23 -226 2 -296 -15 -47
-15 -52 0 -66 56 -49 164 -77 293 -77 l78 0 11 -42 c80 -307 153 -501 294
-774 l84 -162 -62 -17 c-33 -10 -65 -18 -71 -19 -5 -1 26 -21 68 -45 42 -23
77 -44 77 -46 0 -6 -178 -62 -274 -86 -47 -12 -86 -25 -86 -29 0 -4 22 -24 50
-46 27 -21 49 -42 50 -46 1 -16 -292 -118 -385 -133 l-40 -7 43 -38 c49 -44
50 -43 -63 -60 -38 -6 -86 -8 -106 -5 l-38 7 -6 -49 c-13 -98 -8 -93 -78 -93
-55 1 -87 8 -149 35 -16 6 -18 1 -18 -39 0 -25 -4 -46 -8 -46 -26 0 -114 34
-147 55 -20 14 -39 24 -41 22 -4 -4 13 -167 22 -211 4 -19 3 -26 -5 -22 -14 9
-150 170 -189 225 l-32 44 0 -32 c0 -84 47 -307 77 -365 15 -30 15 -30 -2 -16
-35 29 -92 129 -118 208 -24 73 -58 305 -46 316 3 3 23 -1 44 -9 58 -21 150
-18 215 6 30 12 89 24 130 29 41 4 84 12 95 16 39 15 92 55 105 79 13 24 18
25 105 25 52 0 113 6 142 15 71 21 168 88 211 146 20 27 43 49 50 49 8 0 42
13 76 30 70 33 151 112 186 180 20 39 22 53 16 122 -21 250 -117 524 -239 678
-42 53 -48 57 -108 69 -112 22 -368 25 -503 7 -289 -41 -610 -158 -873 -319
l-93 -56 -83 10 -83 11 -29 52 c-53 97 -116 186 -196 276 l-80 91 30 10 c17 6
31 15 31 21 0 32 61 126 116 178 64 60 125 90 227 112 l49 10 -6 57 c-8 66 8
189 34 275 11 33 18 61 16 63 -1 2 -38 -28 -82 -67 -61 -54 -86 -70 -110 -70
-50 0 -213 -30 -304 -57 -106 -30 -266 -108 -345 -168 -33 -25 -63 -45 -67
-45 -4 0 -18 19 -30 43 -33 63 -32 174 3 242 14 28 66 129 115 225 98 193 194
350 347 570 103 147 349 479 450 604 l55 69 -5 141 c-6 160 11 260 67 382 56
125 172 261 271 317 44 25 43 20 29 172 l-9 100 79 160 c44 88 107 228 139
310 66 165 52 149 199 235 40 24 112 71 160 105 50 37 91 59 97 55 7 -6 7 -37
1 -94z m4199 -111 c374 -48 685 -142 1015 -306 181 -90 410 -235 560 -355 117
-94 345 -319 443 -437 403 -486 649 -1078 708 -1699 17 -186 7 -576 -20 -748
-103 -670 -404 -1264 -881 -1740 -248 -249 -500 -430 -815 -585 -274 -135
-480 -207 -761 -264 -239 -49 -421 -64 -694 -58 -446 10 -821 96 -1220 277
-334 152 -629 359 -900 630 -329 328 -559 685 -718 1110 -345 927 -230 1967
308 2784 550 833 1415 1337 2420 1410 107 8 437 -4 555 -19z m3742 -567 c24
-32 62 -93 83 -136 49 -98 87 -123 197 -130 53 -3 73 -8 73 -19 0 -19 65 -147
108 -211 19 -29 54 -73 78 -97 28 -28 64 -84 101 -157 44 -88 71 -127 124
-181 l67 -69 7 -112 c8 -134 29 -258 51 -312 9 -21 40 -70 69 -109 208 -277
664 -1037 747 -1244 17 -41 33 -102 36 -135 l5 -61 -24 20 c-13 11 -36 31 -51
44 l-28 25 -29 -28 -29 -28 -54 40 c-108 81 -228 125 -343 125 l-70 1 -129
-84 -129 -84 81 -17 c214 -46 311 -159 347 -404 l6 -41 -88 -79 c-48 -43 -128
-120 -178 -170 -75 -76 -98 -94 -136 -103 -97 -24 -213 28 -449 203 -168 125
-200 140 -367 170 -122 22 -367 30 -478 16 -49 -7 -126 -21 -170 -33 -83 -21
-243 -91 -296 -129 -16 -11 -31 -20 -33 -18 -2 2 5 31 15 65 l19 61 78 31
c216 85 391 115 647 110 95 -2 168 0 160 5 -39 21 -264 49 -443 54 l-193 6
-29 33 c-16 19 -36 34 -43 34 -8 0 -40 -18 -71 -40 l-58 -41 7 43 c9 53 27 68
133 109 l82 33 36 114 c19 63 33 116 31 119 -3 2 -52 28 -109 56 l-103 52 -3
62 -3 63 73 -31 c40 -17 120 -53 177 -80 57 -27 106 -49 107 -49 2 0 4 16 4
36 0 78 73 138 200 165 30 7 51 14 45 15 -5 2 -120 24 -255 48 -373 68 -350
62 -350 100 l0 32 73 -9 c39 -4 162 -9 272 -10 295 -1 446 26 623 114 57 28
101 53 98 56 -2 3 -42 0 -87 -6 -120 -16 -339 -26 -338 -15 0 5 32 25 72 44
39 19 99 55 132 79 60 43 185 160 185 172 0 4 -29 -4 -64 -17 -88 -32 -211
-54 -343 -61 -117 -6 -143 2 -83 27 54 22 263 165 318 216 66 64 67 78 2 53
-151 -57 -400 -119 -540 -134 l-55 -5 92 44 c99 48 219 122 242 149 17 21 14
21 -149 6 -65 -6 -128 -9 -139 -7 -20 3 -20 6 14 55 19 28 36 56 37 62 2 6
-32 26 -76 45 -43 19 -103 50 -133 68 -72 43 -203 165 -241 226 -31 48 -76
151 -69 158 2 3 37 0 77 -6 40 -6 74 -9 76 -7 2 1 -4 43 -13 92 -18 106 -13
264 11 340 21 69 71 141 118 172 21 14 38 29 38 33 0 10 -84 46 -190 82 l-85
29 155 -5 c89 -3 179 -11 210 -20 30 -8 57 -12 59 -10 11 11 -111 113 -168
142 l-64 32 79 0 c132 -1 227 -23 337 -78 12 -6 -52 96 -105 166 -26 34 -45
62 -42 62 22 0 190 -99 234 -138 51 -44 58 -48 97 -44 41 4 42 5 37 36 -14 81
-46 194 -69 245 l-26 56 46 -45 c26 -25 67 -71 92 -102z m-1077 -641 c26 -68
71 -137 117 -177 19 -17 33 -33 31 -35 -10 -10 -125 16 -148 33 -48 37 -65 80
-64 167 0 44 7 100 14 125 l13 45 9 -52 c4 -28 17 -76 28 -106z m-7480 -539
c45 -107 121 -201 149 -183 5 3 9 45 8 93 -1 72 3 95 19 123 20 35 56 48 82
30 18 -11 20 -153 3 -203 -16 -47 -63 -88 -103 -88 -91 0 -206 127 -233 257
-5 25 -3 32 12 36 30 8 33 4 63 -65z m846 -2398 c30 -12 53 -37 54 -59 0 -8
-23 -61 -52 -118 l-52 -104 4 -97 c7 -186 5 -208 -29 -277 -60 -120 -170 -212
-221 -185 -31 17 -24 59 23 146 l42 79 2 175 c3 179 13 243 53 320 27 52 87
118 113 123 12 2 25 5 29 6 4 0 19 -4 34 -9z m7230 -84 c128 -61 139 -90 149
-390 3 -105 10 -211 15 -236 15 -80 51 -160 101 -227 54 -71 50 -73 -42 -27
-122 61 -242 201 -280 326 -18 58 -19 75 -10 118 23 106 20 114 -72 204 -98
95 -118 140 -93 201 30 72 122 84 232 31z m-8285 -228 c12 -16 19 -32 15 -35
-18 -18 -188 52 -227 93 l-21 23 53 34 c98 62 88 63 126 -15 18 -39 43 -84 54
-100z m9489 59 c31 -8 22 -17 -56 -56 -56 -28 -191 -71 -221 -71 -8 0 4 25 26
58 21 31 49 78 62 103 l22 47 71 -37 c39 -21 82 -40 96 -44z m-1795 -259 c0
-112 2 -128 26 -179 43 -92 190 -199 445 -327 314 -157 573 -233 798 -236
l109 -1 19 -45 c23 -53 27 -112 10 -133 -7 -8 -37 -27 -67 -41 -68 -34 -154
-125 -222 -237 -67 -110 -96 -139 -138 -139 -73 0 -113 77 -102 196 7 76 45
219 82 313 14 36 23 66 21 68 -2 3 -47 -9 -100 -26 -53 -17 -138 -38 -189 -47
-82 -15 -97 -15 -123 -3 -26 13 -29 19 -28 61 0 36 8 59 37 102 21 31 34 56
30 56 -5 0 -51 -9 -103 -20 -121 -25 -242 -27 -265 -3 -22 21 -15 70 20 137
14 27 24 50 23 51 -2 2 -41 -10 -88 -26 -122 -41 -220 -37 -235 10 -9 29 24
97 74 154 24 26 41 47 38 47 -2 0 -30 -9 -62 -20 -123 -42 -215 -36 -215 15 0
14 27 70 59 124 33 54 79 137 103 185 23 47 43 86 43 86 0 0 0 -55 0 -122z
m-7407 -255 c33 -95 92 -218 136 -282 20 -30 35 -55 34 -56 -2 -2 -25 -10 -51
-19 -50 -17 -96 -20 -135 -10 -52 14 -73 218 -38 362 10 39 21 72 25 72 3 0
17 -30 29 -67z m8832 -70 c16 -75 16 -185 0 -251 -13 -48 -17 -53 -49 -61 -66
-17 -106 -20 -139 -13 l-32 7 40 54 c44 58 106 181 136 269 11 28 21 52 25 52
3 0 12 -26 19 -57z m-6943 -418 c20 -8 89 -67 154 -130 346 -336 766 -587
1254 -750 982 -328 2073 -184 2945 389 159 105 298 216 454 366 188 180 223
183 383 28 l94 -91 62 9 c34 5 112 9 172 9 93 -1 122 -5 192 -29 207 -70 362
-235 419 -447 21 -78 24 -224 5 -296 -7 -28 -10 -62 -6 -74 4 -12 40 -56 79
-99 152 -162 146 -209 -55 -406 -691 -674 -1595 -1136 -2609 -1333 -166 -32
-401 -65 -541 -77 l-86 -6 -11 -57 c-34 -159 -146 -284 -300 -331 -243 -75
-498 75 -556 328 l-13 57 -74 7 c-177 18 -405 51 -549 79 -900 175 -1702 552
-2370 1113 -132 111 -366 343 -384 380 -36 76 -14 139 83 239 95 100 95 100
75 204 -39 207 29 419 182 568 73 72 147 118 246 152 61 21 92 26 188 27 63 0
143 -3 177 -8 l63 -9 87 86 c117 114 163 134 240 102z"/>
<path d="M5885 11670 c-248 -39 -464 -194 -565 -405 -60 -127 -79 -246 -61
-380 36 -262 173 -457 396 -565 117 -56 209 -73 363 -67 147 5 215 22 327 77
185 91 323 263 369 460 24 99 21 287 -5 380 -64 232 -251 410 -501 480 -85 24
-238 33 -323 20z m221 -391 c57 -18 77 -31 129 -82 78 -79 99 -135 93 -246 -6
-92 -30 -152 -89 -216 -192 -209 -524 -102 -577 185 -29 157 73 313 241 365
62 20 126 18 203 -6z"/>
<path d="M7340 11607 c0 -2 -95 -285 -211 -628 -116 -343 -211 -628 -212 -632
-2 -7 230 -93 354 -132 14 -5 37 55 134 345 64 193 118 350 119 348 2 -2 69
-196 151 -433 82 -236 152 -435 157 -442 14 -18 348 -127 358 -117 8 9 430
1248 430 1264 0 12 -363 131 -371 122 -3 -4 -57 -160 -120 -346 -114 -338
-114 -339 -128 -305 -7 19 -77 216 -155 439 l-141 405 -165 57 c-148 51 -200
65 -200 55z"/>
<path d="M4463 11267 c-89 -40 -164 -75 -168 -79 -6 -6 508 -1213 524 -1231 6
-5 345 134 359 148 8 7 -527 1230 -539 1232 -8 1 -87 -31 -176 -70z"/>
<path d="M9165 10722 c-121 -42 -224 -135 -284 -257 -29 -58 -34 -80 -35 -141
0 -63 4 -80 37 -145 20 -41 70 -116 111 -166 41 -51 82 -113 92 -138 17 -45
17 -47 -3 -73 -79 -106 -245 7 -308 208 -9 30 -18 61 -21 68 -5 18 -324 -147
-324 -168 0 -8 13 -43 29 -77 131 -276 391 -455 643 -441 64 4 91 11 152 42
91 44 180 137 229 235 28 58 32 75 32 151 0 79 -3 92 -37 161 -20 40 -69 115
-109 164 -107 135 -122 189 -60 215 43 18 87 4 139 -44 41 -37 102 -141 102
-173 0 -7 3 -13 7 -13 3 0 75 37 159 82 l153 81 -30 57 c-94 176 -276 334
-433 376 -70 19 -180 17 -241 -4z"/>
<path d="M3260 10508 c-80 -66 -145 -124 -145 -129 0 -17 840 -1038 851 -1034
20 6 604 488 604 497 0 11 -201 258 -210 258 -3 0 -74 -56 -157 -125 l-152
-125 -163 198 c-90 109 -233 284 -318 390 -85 105 -157 191 -160 191 -3 0 -70
-55 -150 -121z"/>
<path d="M1257 7358 c-129 -194 -239 -382 -328 -559 l-59 -119 68 0 c57 0 80
5 130 31 51 25 62 35 62 55 0 88 87 369 189 614 33 79 58 146 56 148 -2 2 -55
-74 -118 -170z"/>
<path d="M2062 7246 c9 -131 53 -213 140 -257 36 -18 55 -21 132 -17 138 6
144 16 42 66 -95 48 -209 147 -271 237 -21 30 -40 55 -43 55 -3 0 -2 -38 0
-84z"/>
<path d="M2628 6538 c5 -82 -5 -228 -16 -228 -4 0 -15 19 -24 43 -27 63 -102
152 -163 194 -31 20 -57 34 -60 32 -2 -3 12 -44 31 -92 64 -158 81 -316 48
-442 -8 -33 -18 -70 -21 -82 -5 -22 -2 -23 49 -23 31 0 80 5 109 10 66 12 174
64 184 88 14 33 18 226 5 285 -13 62 -84 213 -123 261 l-24 30 5 -76z"/>
<path d="M2195 6429 c-260 -75 -637 -276 -818 -439 -69 -63 -82 -83 -67 -110
22 -41 61 -26 169 68 125 109 300 216 583 355 148 73 268 135 268 140 0 13
-63 6 -135 -14z"/>
<path d="M2166 6275 c-207 -72 -484 -230 -650 -371 -92 -78 -112 -105 -97
-133 20 -36 54 -26 122 37 153 138 314 243 579 377 102 51 194 100 205 109 19
15 18 15 -20 16 -22 0 -84 -16 -139 -35z"/>
<path d="M2215 6131 c-197 -59 -464 -208 -638 -356 -94 -80 -115 -135 -51
-135 16 0 46 20 88 59 125 117 267 209 529 346 198 103 220 130 72 86z"/>
<path d="M6225 9504 c-422 -49 -696 -127 -1032 -298 -744 -377 -1283 -1060
-1479 -1873 -84 -347 -97 -791 -33 -1146 106 -592 376 -1106 805 -1529 782
-773 1936 -1022 2973 -642 125 46 412 187 526 259 344 218 689 564 900 905
209 338 341 703 402 1115 25 169 25 591 0 760 -48 319 -122 569 -248 834 -277
581 -726 1039 -1300 1325 -318 159 -628 249 -979 286 -87 9 -465 12 -535 4z
m715 -1094 l0 -140 -97 0 c-78 0 -105 -4 -140 -21 -54 -26 -116 -96 -131 -147
-9 -29 -12 -373 -12 -1346 l0 -1306 420 0 c458 0 463 0 523 58 56 52 62 75 68
247 6 186 20 238 96 349 43 64 121 135 180 167 23 12 28 9 112 -75 l89 -89
-42 -51 c-68 -84 -98 -165 -104 -277 -7 -157 36 -266 148 -373 l60 -57 0 -170
0 -169 -1395 0 -1395 0 0 179 0 179 93 4 c130 6 198 44 250 142 l22 41 0 1265
-1 1265 -23 45 c-32 61 -57 88 -113 116 -40 20 -62 24 -138 24 l-90 0 0 140 0
140 810 0 810 0 0 -140z"/>
<path d="M10995 8244 c-11 -2 -45 -9 -75 -15 -83 -16 -213 -56 -325 -101 -124
-49 -218 -68 -345 -68 -122 0 -208 24 -268 76 -24 20 -45 34 -49 31 -10 -11
62 -122 112 -173 27 -27 77 -63 110 -80 57 -27 67 -29 185 -29 105 0 135 4
189 23 l64 23 38 -37 c21 -21 40 -36 43 -33 2 2 -1 27 -7 54 -5 28 -7 75 -3
106 7 54 9 56 44 67 32 10 39 9 50 -5 15 -21 16 -76 1 -141 -14 -58 -6 -102
18 -102 27 0 108 94 149 174 37 72 39 73 66 64 24 -8 27 -14 22 -36 -11 -47
-53 -132 -84 -172 -38 -48 -126 -94 -163 -85 -27 7 -87 -19 -144 -62 -39 -29
-44 -66 -12 -84 53 -28 248 23 372 97 l72 43 40 -43 c23 -24 56 -71 74 -105
18 -34 38 -64 44 -66 66 -18 174 -62 200 -81 68 -49 133 -84 159 -84 60 0 60
7 -13 106 -125 174 -162 259 -204 472 -14 70 -28 137 -30 149 -10 42 -64 92
-118 108 -46 14 -162 18 -212 9z"/>
<path d="M11683 7254 c-25 -27 -71 -31 -136 -13 -22 6 -41 8 -44 5 -10 -9 121
-133 164 -154 83 -43 153 -38 153 10 0 36 -88 180 -108 177 -4 -1 -17 -12 -29
-25z"/>
<path d="M11680 6981 c14 -26 165 -168 197 -184 28 -15 53 -20 86 -18 13 1 17
10 17 42 0 49 -36 117 -53 100 -23 -23 -86 -11 -171 33 -57 29 -82 38 -76 27z"/>
<path d="M11875 6690 c80 -82 149 -115 179 -85 21 22 21 44 -1 39 -24 -7 -95
20 -155 56 -65 40 -70 38 -23 -10z"/>
<path d="M10608 6564 c-17 -16 -4 -25 118 -83 129 -62 202 -109 334 -215 202
-163 335 -286 306 -286 -2 0 -42 27 -88 60 -243 174 -557 311 -784 342 -91 13
-137 6 -132 -19 2 -12 33 -24 113 -44 159 -39 340 -115 539 -226 137 -76 296
-180 296 -193 0 -13 15 -17 -140 36 -523 177 -991 275 -978 205 3 -12 44 -24
183 -52 241 -49 421 -106 892 -283 169 -63 206 -74 232 -66 41 12 99 57 117
92 14 27 14 31 -14 66 -35 44 -163 167 -280 270 -177 156 -395 302 -541 363
-73 30 -160 47 -173 33z"/>
<path d="M3501 3497 l-324 -361 47 -44 c26 -24 50 -42 55 -40 4 2 152 163 329
360 l321 356 -49 46 c-27 25 -50 46 -52 45 -2 0 -149 -163 -327 -362z"/>
<path d="M8959 3724 c-24 -20 -44 -41 -44 -46 0 -6 139 -176 309 -378 l309
-369 131 111 c72 61 132 113 133 117 1 3 -15 25 -35 48 l-37 42 -82 -70 -82
-69 -158 187 c-87 104 -209 249 -271 323 -62 74 -117 136 -121 138 -5 1 -28
-14 -52 -34z"/>
<path d="M3741 3290 l-280 -399 49 -36 c26 -19 52 -35 58 -35 15 0 192 257
301 435 50 82 91 147 91 145 0 -3 -51 -161 -114 -352 l-114 -348 50 -36 c28
-20 54 -32 58 -27 40 45 549 786 545 793 -6 10 -90 70 -99 70 -12 0 -202 -281
-281 -416 -48 -82 -91 -153 -96 -158 -4 -5 30 108 77 250 118 364 136 424 131
437 -2 7 -25 27 -50 45 l-46 32 -280 -400z"/>
<path d="M8653 3502 c-23 -15 -43 -30 -43 -34 0 -6 272 -729 339 -901 l11 -28
42 26 c24 14 49 29 57 34 12 7 7 24 -23 96 -20 49 -33 92 -29 95 4 4 40 28 78
54 l70 47 67 -71 66 -72 57 38 56 38 -353 353 c-194 194 -353 353 -353 352 0
0 -19 -13 -42 -27z m319 -417 l107 -120 -61 -38 c-33 -21 -61 -37 -62 -35 -4
6 -159 353 -173 388 -13 33 -11 32 34 -20 26 -30 96 -109 155 -175z"/>
<path d="M4397 3352 l-26 -47 65 -35 c35 -18 64 -37 64 -42 0 -4 -88 -172
-195 -374 -107 -202 -195 -370 -195 -375 0 -9 92 -59 109 -59 5 0 98 168 207
374 l199 374 57 -29 c32 -16 62 -29 68 -29 5 0 21 22 34 48 l24 48 -182 97
c-101 53 -188 97 -193 97 -5 0 -21 -21 -36 -48z"/>
<path d="M8332 3305 c-30 -14 -51 -28 -49 -32 3 -5 37 -76 75 -160 39 -83 98
-200 132 -260 34 -59 73 -127 87 -150 13 -24 22 -43 20 -43 -2 0 -113 121
-247 269 l-242 269 -57 -25 c-31 -14 -57 -26 -59 -27 -1 -2 84 -187 189 -412
105 -225 198 -424 205 -441 l14 -33 57 25 c31 14 59 28 62 30 10 10 -182 401
-285 583 -14 23 -23 42 -21 42 3 0 113 -121 246 -270 227 -253 243 -269 266
-260 42 16 85 40 85 48 0 20 -405 872 -414 871 -6 0 -35 -11 -64 -24z"/>
<path d="M4857 3177 c-3 -7 -84 -209 -182 -450 -98 -241 -173 -442 -169 -446
5 -4 78 -35 162 -69 l153 -61 20 45 c10 25 19 51 19 57 0 7 -39 27 -88 46 -48
18 -91 37 -95 41 -6 5 92 274 108 297 1 2 41 -13 89 -33 49 -19 90 -34 92 -32
7 8 44 101 41 105 -2 2 -40 18 -84 36 -44 17 -81 37 -82 42 -1 6 21 69 49 141
l52 131 100 -41 c78 -32 101 -38 107 -27 15 24 34 91 28 97 -3 4 -76 35 -161
69 -102 42 -156 59 -159 52z"/>
<path d="M7619 3022 c-141 -74 -155 -229 -48 -551 51 -157 98 -250 157 -314
56 -60 93 -77 167 -77 150 0 239 119 220 293 -21 191 -132 492 -221 595 -72
85 -177 105 -275 54z m170 -148 c45 -52 98 -178 152 -364 42 -145 46 -247 12
-281 -31 -31 -76 -29 -112 5 -74 71 -201 436 -201 578 0 49 4 63 25 83 39 40
76 33 124 -21z"/>
<path d="M5245 3018 c-20 -57 -246 -921 -242 -924 8 -8 119 -36 124 -31 2 3
29 101 61 218 65 248 61 251 87 -63 l18 -206 65 -17 c35 -9 66 -14 68 -13 1 2
-8 107 -21 233 -30 282 -30 265 -4 265 32 0 83 35 113 78 54 78 86 217 67 289
-22 82 -72 118 -220 159 -99 27 -110 28 -116 12z m180 -171 c32 -46 6 -188
-45 -239 -22 -22 -38 -28 -69 -28 -23 0 -41 2 -41 5 0 3 13 54 29 113 17 59
35 126 41 149 10 41 11 42 40 31 17 -5 37 -20 45 -31z"/>
<path d="M7232 2920 c-18 -4 -36 -10 -39 -13 -4 -5 147 -817 174 -933 4 -20 7
-21 64 -9 33 7 63 15 66 18 4 5 -147 810 -174 925 -6 24 -28 27 -91 12z"/>
<path d="M5736 2878 c-16 -93 -126 -891 -126 -912 0 -22 5 -25 61 -31 33 -4
62 -6 64 -4 9 10 55 374 66 526 7 95 14 171 15 170 2 -2 28 -164 59 -362 30
-197 57 -360 59 -362 8 -8 111 -21 118 -15 7 8 141 953 135 958 -2 2 -32 5
-67 6 l-64 3 -22 -160 c-12 -88 -28 -243 -34 -345 -7 -102 -13 -186 -14 -187
-1 -1 -26 150 -55 335 -29 185 -56 349 -58 364 -6 29 -13 33 -85 43 l-47 6 -5
-33z"/>
<path d="M6848 2866 c-92 -12 -170 -24 -172 -27 -3 -3 -3 -29 1 -58 l6 -53 76
7 76 7 49 -404 c26 -222 50 -412 53 -424 4 -19 8 -20 65 -12 34 4 63 10 65 12
3 2 -19 192 -47 421 -28 229 -49 419 -47 422 3 2 33 8 67 13 34 5 64 11 67 13
2 3 1 28 -3 56 l-7 51 -41 -1 c-22 -1 -116 -11 -208 -23z"/>
<path d="M6415 2828 c-3 -13 -47 -233 -99 -490 l-93 -468 67 0 66 0 13 78 c20
122 9 112 115 112 l94 0 17 -90 17 -90 70 0 c52 0 69 3 66 13 -2 6 -54 225
-114 484 l-109 473 -52 0 c-46 0 -53 -3 -58 -22z m100 -443 c14 -88 28 -172
32 -187 l5 -28 -71 0 c-50 0 -71 4 -71 13 0 10 57 431 61 447 2 7 12 -51 44
-245z"/>
<path d="M6398 1727 c-110 -31 -198 -147 -198 -262 0 -142 132 -275 275 -275
96 0 203 69 246 158 48 98 22 239 -58 313 -68 64 -176 91 -265 66z m167 -76
c49 -22 79 -54 100 -105 58 -137 -42 -289 -190 -289 -222 0 -288 309 -85 397
48 21 127 19 175 -3z"/>
<path d="M6413 1629 l-33 -10 0 -154 0 -155 30 0 30 0 0 66 c0 57 2 65 18 62
9 -2 32 -31 50 -66 31 -58 35 -62 68 -62 18 0 34 2 34 5 0 3 -15 36 -34 73
l-34 67 24 28 c43 50 24 115 -42 143 -38 16 -64 16 -111 3z m88 -59 c23 -13
25 -55 3 -64 -9 -3 -27 -6 -40 -6 -21 0 -24 4 -24 40 0 34 3 40 21 40 11 0 29
-5 40 -10z"/>
</g>
</svg>
